HIERARCHY
ROOT Hips
{
	OFFSET 0.000000 71.427986 0.000000
	CHANNELS 6 Xposition Yposition Zposition Xrotation Yrotation Zrotation
	JOINT Pelvis
	{
		OFFSET 0.000000 0.000000 0.000000
		CHANNELS 3 Xrotation Yrotation Zrotation
		JOINT LeftUpLeg
		{
			OFFSET 6.797100 -2.508499 -1.318700
			CHANNELS 3 Xrotation Yrotation Zrotation
			JOINT LeftLeg
			{
				OFFSET 0.069008 -29.241863 0.690200
				CHANNELS 3 Xrotation Yrotation Zrotation
				JOINT LeftFoot
				{
					OFFSET -0.069008 -29.568123 -0.266800
					CHANNELS 3 Xrotation Yrotation Zrotation
					JOINT LeftToeBase
					{
						OFFSET 3.145500 -8.631000 16.059900
						CHANNELS 3 Xrotation Yrotation Zrotation
						End Site
						{
							OFFSET 0.000000 18.501587 0.000000
						}
					}
				}
			}
			JOINT Left_ShortSleeve
			{
				OFFSET 0.265923 -10.480953 1.153800
				CHANNELS 3 Xrotation Yrotation Zrotation
				End Site
				{
					OFFSET 1.725763 19.823879 0.000000
				}
			}
		}
		JOINT RightUpLeg
		{
			OFFSET -6.797100 -2.508499 -1.318700
			CHANNELS 3 Xrotation Yrotation Zrotation
			JOINT RightLeg
			{
				OFFSET -0.082453 -29.241932 0.688000
				CHANNELS 3 Xrotation Yrotation Zrotation
				JOINT RightFoot
				{
					OFFSET 0.082453 -29.568058 -0.264600
					CHANNELS 3 Xrotation Yrotation Zrotation
					JOINT RightToeBase
					{
						OFFSET -3.115300 -8.682800 16.113400
						CHANNELS 3 Xrotation Yrotation Zrotation
						End Site
						{
							OFFSET 0.000000 18.567114 0.000000
						}
					}
				}
			}
			JOINT Right_ShortSleeve
			{
				OFFSET -0.265923 -10.480953 1.153800
				CHANNELS 3 Xrotation Yrotation Zrotation
				End Site
				{
					OFFSET -1.725766 19.823910 0.000000
				}
			}
		}
	}
	JOINT Spine
	{
		OFFSET 0.000000 13.368103 0.470500
		CHANNELS 3 Xrotation Yrotation Zrotation
		JOINT Spine1
		{
			OFFSET 0.147000 13.837402 0.538800
			CHANNELS 3 Xrotation Yrotation Zrotation
			JOINT Spine2
			{
				OFFSET 0.168000 16.242897 -1.435500
				CHANNELS 3 Xrotation Yrotation Zrotation
				JOINT Neck
				{
					OFFSET 0.217200 18.631500 -1.679100
					CHANNELS 3 Xrotation Yrotation Zrotation
					JOINT Head
					{
						OFFSET 0.000000 6.599396 1.385900
						CHANNELS 3 Xrotation Yrotation Zrotation
						JOINT Hat
						{
							OFFSET -0.532200 27.220596 -10.096100
							CHANNELS 3 Xrotation Yrotation Zrotation
							End Site
							{
								OFFSET 0.000000 22.029861 0.000000
							}
						}
						JOINT HairD
						{
							OFFSET -10.777400 17.437393 -1.325900
							CHANNELS 3 Xrotation Yrotation Zrotation
							JOINT HairD1
							{
								OFFSET -3.290299 -11.051193 1.062200
								CHANNELS 3 Xrotation Yrotation Zrotation
								End Site
								{
									OFFSET 0.000000 11.579437 0.000000
								}
							}
						}
						JOINT HairB
						{
							OFFSET -10.777400 17.437393 1.467900
							CHANNELS 3 Xrotation Yrotation Zrotation
							JOINT HairB1
							{
								OFFSET -1.561200 -12.956299 3.590200
								CHANNELS 3 Xrotation Yrotation Zrotation
								End Site
								{
									OFFSET 0.000000 13.534866 0.000000
								}
							}
						}
						JOINT HairA
						{
							OFFSET 9.713100 17.437393 1.467900
							CHANNELS 3 Xrotation Yrotation Zrotation
							JOINT HairA1
							{
								OFFSET 1.561200 -12.956299 3.590200
								CHANNELS 3 Xrotation Yrotation Zrotation
								End Site
								{
									OFFSET 0.000000 13.534866 0.000000
								}
							}
						}
						JOINT HairC
						{
							OFFSET 9.713100 17.437393 -1.325900
							CHANNELS 3 Xrotation Yrotation Zrotation
							JOINT HairC1
							{
								OFFSET 3.290300 -11.051193 1.062200
								CHANNELS 3 Xrotation Yrotation Zrotation
								End Site
								{
									OFFSET 0.000000 11.579437 0.000000
								}
							}
						}
					}
				}
				JOINT LeftShoulder
				{
					OFFSET 5.101800 15.108002 -2.763700
					CHANNELS 3 Xrotation Yrotation Zrotation
					JOINT LeftArm
					{
						OFFSET 9.825497 2.506317 -1.597400
						CHANNELS 3 Xrotation Yrotation Zrotation
						JOINT LeftForeArm
						{
							OFFSET 21.966244 0.000000 0.000000
							CHANNELS 3 Xrotation Yrotation Zrotation
							JOINT LeftHand
							{
								OFFSET 33.879036 0.000000 0.000000
								CHANNELS 3 Xrotation Yrotation Zrotation
								JOINT LeftHandThumb1
								{
									OFFSET 6.715286 -2.359680 3.363841
									CHANNELS 3 Xrotation Yrotation Zrotation
									JOINT LeftHandThumb2
									{
										OFFSET 2.507072 -1.447464 1.447461
										CHANNELS 3 Xrotation Yrotation Zrotation
										JOINT LeftHandThumb3
										{
											OFFSET 2.898338 -1.673355 1.673357
											CHANNELS 3 Xrotation Yrotation Zrotation
											End Site
											{
												OFFSET -0.295959 3.727692 -0.131651
											}
										}
									}
								}
								JOINT LeftHandIndex1
								{
									OFFSET 14.190811 -0.254547 3.840278
									CHANNELS 3 Xrotation Yrotation Zrotation
									JOINT LeftHandIndex2
									{
										OFFSET 3.551727 0.000000 -0.000000
										CHANNELS 3 Xrotation Yrotation Zrotation
										JOINT LeftHandIndex3
										{
											OFFSET 2.894196 0.000000 0.000000
											CHANNELS 3 Xrotation Yrotation Zrotation
											End Site
											{
												OFFSET -1.000603 2.690872 0.366626
											}
										}
									}
								}
								JOINT LeftHandMiddle1
								{
									OFFSET 13.776489 0.000000 0.000000
									CHANNELS 3 Xrotation Yrotation Zrotation
									JOINT LeftHandMiddle2
									{
										OFFSET 3.438232 0.000000 0.000000
										CHANNELS 3 Xrotation Yrotation Zrotation
										JOINT LeftHandMiddle3
										{
											OFFSET 3.691551 0.000000 0.000000
											CHANNELS 3 Xrotation Yrotation Zrotation
											End Site
											{
												OFFSET -1.082298 3.499527 0.457670
											}
										}
									}
								}
								JOINT LeftHandRing1
								{
									OFFSET 13.966164 -0.268127 -3.067488
									CHANNELS 3 Xrotation Yrotation Zrotation
									JOINT LeftHandRing2
									{
										OFFSET 3.162567 0.000000 0.000000
										CHANNELS 3 Xrotation Yrotation Zrotation
										JOINT LeftHandRing3
										{
											OFFSET 3.324348 0.000000 0.000000
											CHANNELS 3 Xrotation Yrotation Zrotation
											End Site
											{
												OFFSET -0.861900 3.184998 0.405154
											}
										}
									}
								}
								JOINT LeftHandPinky1
								{
									OFFSET 13.131393 -0.168503 -5.746925
									CHANNELS 3 Xrotation Yrotation Zrotation
									JOINT LeftHandPinky2
									{
										OFFSET 2.849182 0.000000 0.000000
										CHANNELS 3 Xrotation Yrotation Zrotation
										JOINT LeftHandPinky3
										{
											OFFSET 2.805038 0.000000 0.000000
											CHANNELS 3 Xrotation Yrotation Zrotation
											End Site
											{
												OFFSET -0.882500 2.642609 0.325652
											}
										}
									}
								}
							}
							JOINT Left_Sleeve
							{
								OFFSET 6.592125 -0.646545 0.805568
								CHANNELS 3 Xrotation Yrotation Zrotation
								End Site
								{
									OFFSET -0.000179 20.275787 -0.000000
								}
							}
						}
					}
				}
				JOINT RightShoulder
				{
					OFFSET -5.731700 15.108002 -2.763700
					CHANNELS 3 Xrotation Yrotation Zrotation
					JOINT RightArm
					{
						OFFSET -9.825497 2.506317 -1.597400
						CHANNELS 3 Xrotation Yrotation Zrotation
						JOINT RightForeArm
						{
							OFFSET -21.966242 0.000000 0.000000
							CHANNELS 3 Xrotation Yrotation Zrotation
							JOINT RightHand
							{
								OFFSET -33.879032 0.000000 0.000000
								CHANNELS 3 Xrotation Yrotation Zrotation
								JOINT RightHandThumb1
								{
									OFFSET -6.715286 -2.359680 3.363841
									CHANNELS 3 Xrotation Yrotation Zrotation
									JOINT RightHandThumb2
									{
										OFFSET -2.507072 -1.447464 1.447461
										CHANNELS 3 Xrotation Yrotation Zrotation
										JOINT RightHandThumb3
										{
											OFFSET -2.898338 -1.673355 1.673357
											CHANNELS 3 Xrotation Yrotation Zrotation
											End Site
											{
												OFFSET 0.295959 3.727692 -0.131651
											}
										}
									}
								}
								JOINT RightHandIndex1
								{
									OFFSET -14.190811 -0.254547 3.840278
									CHANNELS 3 Xrotation Yrotation Zrotation
									JOINT RightHandIndex2
									{
										OFFSET -3.551727 0.000000 -0.000000
										CHANNELS 3 Xrotation Yrotation Zrotation
										JOINT RightHandIndex3
										{
											OFFSET -2.894196 0.000000 0.000000
											CHANNELS 3 Xrotation Yrotation Zrotation
											End Site
											{
												OFFSET 1.000603 2.690872 0.366626
											}
										}
									}
								}
								JOINT RightHandMiddle1
								{
									OFFSET -13.776489 0.000000 0.000000
									CHANNELS 3 Xrotation Yrotation Zrotation
									JOINT RightHandMiddle2
									{
										OFFSET -3.438232 0.000000 0.000000
										CHANNELS 3 Xrotation Yrotation Zrotation
										JOINT RightHandMiddle3
										{
											OFFSET -3.691551 0.000000 0.000000
											CHANNELS 3 Xrotation Yrotation Zrotation
											End Site
											{
												OFFSET 1.082298 3.499527 0.457670
											}
										}
									}
								}
								JOINT RightHandRing1
								{
									OFFSET -13.966164 -0.268127 -3.067488
									CHANNELS 3 Xrotation Yrotation Zrotation
									JOINT RightHandRing2
									{
										OFFSET -3.162567 0.000000 0.000000
										CHANNELS 3 Xrotation Yrotation Zrotation
										JOINT RightHandRing3
										{
											OFFSET -3.324348 0.000000 0.000000
											CHANNELS 3 Xrotation Yrotation Zrotation
											End Site
											{
												OFFSET 0.861900 3.184998 0.405154
											}
										}
									}
								}
								JOINT RightHandPinky1
								{
									OFFSET -13.131393 -0.168503 -5.746925
									CHANNELS 3 Xrotation Yrotation Zrotation
									JOINT RightHandPinky2
									{
										OFFSET -2.849182 0.000000 0.000000
										CHANNELS 3 Xrotation Yrotation Zrotation
										JOINT RightHandPinky3
										{
											OFFSET -2.805038 0.000000 0.000000
											CHANNELS 3 Xrotation Yrotation Zrotation
											End Site
											{
												OFFSET 0.882500 2.642609 0.325652
											}
										}
									}
								}
							}
							JOINT Right_Sleeve
							{
								OFFSET -6.592125 -0.646545 0.805568
								CHANNELS 3 Xrotation Yrotation Zrotation
								End Site
								{
									OFFSET 0.000179 20.275787 -0.000000
								}
							}
						}
					}
				}
				JOINT Bind_Right_JacketString
				{
					OFFSET -3.534800 11.969597 7.200700
					CHANNELS 3 Xrotation Yrotation Zrotation
					JOINT Bind_Right_JacketString1
					{
						OFFSET -0.319900 -6.102600 2.794100
						CHANNELS 3 Xrotation Yrotation Zrotation
						End Site
						{
							OFFSET 0.000000 6.719452 0.000000
						}
					}
				}
				JOINT Bind_Left_JacketString
				{
					OFFSET 2.904800 11.969597 7.200700
					CHANNELS 3 Xrotation Yrotation Zrotation
					JOINT Bind_Left_JacketString1
					{
						OFFSET 0.364800 -5.904503 3.186800
						CHANNELS 3 Xrotation Yrotation Zrotation
						End Site
						{
							OFFSET 0.000000 6.719513 0.000000
						}
					}
				}
				JOINT HairE
				{
					OFFSET 5.915200 17.612701 -11.592200
					CHANNELS 3 Xrotation Yrotation Zrotation
					JOINT HairE1
					{
						OFFSET 0.289200 -7.171898 -1.284500
						CHANNELS 3 Xrotation Yrotation Zrotation
						End Site
						{
							OFFSET 0.000000 7.291756 0.000000
						}
					}
				}
				JOINT HairF
				{
					OFFSET -0.864800 17.612701 -11.592200
					CHANNELS 3 Xrotation Yrotation Zrotation
					JOINT HairF1
					{
						OFFSET 0.000000 -14.087097 -2.127501
						CHANNELS 3 Xrotation Yrotation Zrotation
						End Site
						{
							OFFSET 0.000000 14.246841 0.000000
						}
					}
				}
				JOINT HairG
				{
					OFFSET -8.087700 17.612701 -11.592200
					CHANNELS 3 Xrotation Yrotation Zrotation
					JOINT HairG1
					{
						OFFSET -0.293600 -6.081398 -0.910100
						CHANNELS 3 Xrotation Yrotation Zrotation
						End Site
						{
							OFFSET 0.000000 6.156120 0.000000
						}
					}
				}
			}
		}
	}
	JOINT Pouch
	{
		OFFSET 0.000000 4.394501 10.847300
		CHANNELS 3 Xrotation Yrotation Zrotation
		End Site
		{
			OFFSET 0.000000 21.880577 0.000000
		}
	}
	JOINT Bag
	{
		OFFSET -13.229000 4.813004 -0.593300
		CHANNELS 3 Xrotation Yrotation Zrotation
		End Site
		{
			OFFSET 0.000000 21.880577 0.000000
		}
	}
	JOINT OccupyGuyFacialAnim_Joint
	{
		OFFSET 1.000000 -70.206398 -1.655000
		CHANNELS 3 Xrotation Yrotation Zrotation
		End Site
		{
			OFFSET 0.000000 21.880577 0.000000
		}
	}
}
MOTION
Frames: 4
Frame Time: 0.016667
-0.429834 68.287888 0.670456 1.512615 -26.751855 0.507817 -0.000000 -0.000000 -0.000000 -26.617044 26.588883 12.774272 26.321254 8.453054 10.330228 -3.726506 0.890951 -11.514670 -0.000000 -0.000000 -0.000000 0.000000 0.000000 0.000000 -17.707494 -17.201331 -8.111291 32.097040 -1.809456 -7.139340 -16.164198 -2.128789 10.563852 -0.000000 0.000000 0.000000 -0.000000 -0.000001 0.000001 4.047518 -1.411277 0.898565 1.509780 -0.573494 0.095187 1.512354 -0.565974 0.098704 -2.627947 4.190005 2.862240 16.708354 24.088494 -12.351908 0.000001 -0.000000 0.000000 0.000001 -0.000000 0.000000 0.000001 -0.000000 0.000000 0.000001 -0.000000 -0.000000 -0.000000 -0.000000 -0.000000 0.000001 -0.000000 -0.000000 -0.000000 -0.000000 -0.000000 0.000001 -0.000000 0.000000 0.000001 -0.000000 0.000000 -0.278007 3.012251 5.812620 -51.694160 -1.278273 -53.239081 0.000671 -85.822051 0.000600 -13.673763 -20.175378 -8.459479 27.590945 19.106314 -21.055311 27.859558 42.153008 14.703683 0.000001 -0.000001 -0.000001 6.438765 6.867055 -86.304624 7.312854 6.867682 -93.605291 0.000003 -0.000000 -0.000004 6.436827 6.866919 -86.288416 7.314803 6.867575 -93.621519 0.000002 -0.000005 0.000003 6.438732 6.866994 -86.304611 7.312873 6.867721 -93.605297 -0.000001 0.000000 0.000002 10.514968 7.128951 -86.291019 7.312039 2.781443 -93.595284 -0.000001 0.000001 -0.000002 0.000001 0.000001 0.000003 -1.118783 -11.889980 10.257416 -58.214700 66.009352 74.019955 0.000184 83.646772 -0.000204 -16.117257 15.251146 -32.686775 35.509590 -4.573221 10.809931 66.380812 -29.908002 29.548717 0.000000 0.000001 -0.000000 5.945874 -6.875927 81.685347 8.620162 -6.744995 103.956572 0.000001 -0.000002 0.000002 5.945873 -6.875921 81.685340 8.620173 -6.745018 103.956552 -0.000000 -0.000004 0.000000 5.945850 -6.875866 81.685333 8.620183 -6.745032 103.956558 -0.000000 -0.000001 -0.000000 5.945875 -6.875924 81.685340 8.620184 -6.745030 103.956572 -0.000000 0.000002 -0.000001 0.000000 0.000001 0.000002 0.000000 -0.000000 0.000000 -0.000000 -0.000000 0.000000 0.000000 -0.000000 0.000000 0.000000 -0.000000 0.000000 0.000000 -0.000000 0.000000 -0.000000 -0.000000 0.000000 0.000000 -0.000000 0.000000 0.000000 -0.000000 0.000000 0.000000 -0.000000 0.000000 -0.000000 -0.000000 0.000000 -0.000000 -0.000000 -0.000000 -0.000000 -0.000000 -0.000000 -0.000000 -0.000000 -0.000000 
-0.432123 68.286636 0.674621 1.528497 -26.751288 0.527197 0.000000 -0.000001 -0.000000 -26.627607 26.613912 12.768936 26.323556 8.432039 10.330111 -3.731876 0.891898 -11.512046 -0.000000 -0.000000 -0.000000 0.000001 0.000000 -0.000000 -17.739374 -17.280339 -8.122448 32.107223 -1.735004 -7.196876 -16.174562 -2.130972 10.570243 -0.000000 0.000002 -0.000000 -0.000000 0.000003 0.000000 4.034565 -1.417415 0.902085 1.504778 -0.576867 0.097090 1.507366 -0.569382 0.100618 -2.626397 4.193304 2.853713 16.723302 24.085791 -12.361634 0.000001 0.000000 0.000000 0.000001 0.000000 0.000000 0.000001 0.000000 0.000000 0.000001 0.000000 0.000000 -0.000001 -0.000000 0.000000 0.000001 0.000000 0.000000 -0.000001 -0.000000 0.000000 0.000001 0.000000 0.000000 0.000001 0.000000 0.000000 -0.279653 3.035683 5.768244 -51.680896 -1.342416 -53.222886 0.000662 -85.775879 0.000578 -13.811739 -20.364107 -8.525099 27.590944 19.106317 -21.055318 27.859565 42.153008 14.703690 0.000001 0.000001 0.000001 6.438766 6.867056 -86.304624 7.312851 6.867682 -93.605291 0.000003 0.000001 -0.000002 6.436826 6.866920 -86.288423 7.314800 6.867573 -93.621526 0.000003 -0.000001 -0.000001 6.438732 6.866995 -86.304617 7.312875 6.867721 -93.605297 -0.000001 0.000000 -0.000002 10.514969 7.128955 -86.291025 7.312038 2.781443 -93.595284 0.000001 -0.000000 -0.000001 0.000003 -0.000001 0.000002 -1.120092 -11.901472 10.263993 -58.262156 66.059506 74.030030 0.000400 83.625517 -0.000378 -16.127173 15.169019 -32.708813 35.509590 -4.573218 10.809924 66.380805 -29.907995 29.548717 -0.000001 -0.000002 -0.000001 5.945873 -6.875923 81.685347 8.620164 -6.744998 103.956572 0.000002 0.000002 0.000002 5.945876 -6.875917 81.685333 8.620175 -6.745018 103.956552 -0.000002 -0.000002 -0.000001 5.945847 -6.875862 81.685333 8.620179 -6.745030 103.956565 0.000003 0.000000 0.000001 5.945876 -6.875916 81.685340 8.620180 -6.745025 103.956572 0.000000 0.000001 0.000001 0.000003 0.000002 0.000002 -0.000001 -0.000000 -0.000000 -0.000000 -0.000000 -0.000000 -0.000001 -0.000000 -0.000000 -0.000001 -0.000000 -0.000000 -0.000001 -0.000000 -0.000000 -0.000000 -0.000000 -0.000000 -0.000001 -0.000000 -0.000000 -0.000001 -0.000000 -0.000000 -0.000001 -0.000000 -0.000000 -0.000000 -0.000000 -0.000000 0.000000 -0.000001 -0.000000 0.000000 -0.000001 -0.000000 0.000000 -0.000001 -0.000000 
-0.434204 68.284973 0.678983 1.545191 -26.747361 0.543266 -0.000000 0.000002 -0.000000 -26.647703 26.644597 12.771577 26.334030 8.399498 10.329885 -3.741264 0.892982 -11.506862 -0.000000 -0.000000 -0.000000 -0.000002 0.000000 -0.000000 -17.771196 -17.364977 -8.130396 32.117438 -1.662933 -7.255820 -16.184973 -2.133277 10.577688 -0.000000 -0.000000 -0.000000 -0.000001 -0.000004 -0.000000 4.022102 -1.424109 0.905634 1.499957 -0.580345 0.099078 1.502558 -0.572898 0.102617 -2.623188 4.196179 2.846583 16.734044 24.083206 -12.365513 0.000002 0.000000 -0.000000 0.000002 0.000000 -0.000000 0.000002 0.000000 0.000000 0.000002 0.000000 -0.000000 0.000002 0.000000 -0.000000 0.000002 0.000000 -0.000000 0.000002 0.000000 -0.000000 0.000002 0.000000 -0.000000 0.000002 0.000000 -0.000000 -0.280744 3.056235 5.722899 -51.672809 -1.406305 -53.202847 -0.000464 -85.730834 -0.000482 -13.921649 -20.527413 -8.571519 27.590944 19.106314 -21.055317 27.859558 42.153011 14.703691 -0.000001 -0.000000 -0.000001 6.438766 6.867057 -86.304631 7.312848 6.867681 -93.605297 0.000000 0.000001 0.000000 6.436825 6.866919 -86.288430 7.314799 6.867573 -93.621519 0.000002 0.000001 0.000003 6.438731 6.866994 -86.304617 7.312873 6.867721 -93.605297 0.000001 -0.000003 -0.000000 10.514969 7.128952 -86.291025 7.312037 2.781444 -93.595284 -0.000000 0.000000 -0.000001 0.000003 0.000006 -0.000000 -1.121293 -11.910751 10.267823 -58.301060 66.100529 74.036122 -0.000480 83.610852 0.000495 -16.139122 15.077352 -32.725567 35.509590 -4.573222 10.809930 66.380805 -29.907998 29.548720 -0.000001 -0.000001 0.000000 5.945873 -6.875930 81.685347 8.620160 -6.745002 103.956572 0.000000 -0.000002 0.000002 5.945871 -6.875923 81.685340 8.620173 -6.745018 103.956545 0.000001 0.000001 0.000001 5.945847 -6.875868 81.685333 8.620185 -6.745032 103.956558 -0.000001 0.000001 -0.000001 5.945873 -6.875920 81.685340 8.620187 -6.745026 103.956572 -0.000003 0.000001 0.000001 -0.000001 -0.000001 -0.000000 0.000001 -0.000002 0.000000 0.000001 -0.000002 0.000001 0.000001 -0.000002 0.000000 0.000001 -0.000002 0.000000 0.000001 -0.000002 0.000000 0.000001 -0.000002 0.000001 0.000001 -0.000002 0.000000 0.000001 -0.000002 0.000000 0.000001 -0.000002 0.000000 0.000001 -0.000002 0.000001 -0.000000 0.000002 -0.000000 -0.000000 0.000002 -0.000000 -0.000000 0.000002 -0.000000 
-0.436285 68.282967 0.683478 1.562269 -26.741061 0.556097 0.000000 -0.000001 0.000000 -26.676419 26.682252 12.782475 26.351688 8.355040 10.329587 -3.754250 0.894238 -11.499276 0.000000 0.000000 -0.000000 -0.000002 -0.000000 0.000000 -17.802386 -17.455095 -8.134917 32.126864 -1.593297 -7.316400 -16.194857 -2.135668 10.586065 -0.000000 0.000000 -0.000000 -0.000001 0.000000 0.000001 4.010161 -1.431637 0.909430 1.495334 -0.584009 0.101199 1.497948 -0.576591 0.104754 -2.617658 4.198876 2.840609 16.741154 24.081475 -12.364072 -0.000000 -0.000000 -0.000000 -0.000000 -0.000000 -0.000000 -0.000000 -0.000000 0.000000 -0.000000 -0.000000 -0.000000 -0.000002 -0.000000 0.000000 -0.000000 -0.000000 -0.000000 -0.000002 -0.000000 0.000000 -0.000000 -0.000000 -0.000000 -0.000000 -0.000000 -0.000000 -0.281257 3.073341 5.677566 -51.670887 -1.468541 -53.178753 0.001333 -85.685338 0.001301 -13.994038 -20.655520 -8.594074 27.590940 19.106314 -21.055320 27.859558 42.153008 14.703690 0.000002 -0.000001 -0.000001 6.438765 6.867056 -86.304631 7.312855 6.867681 -93.605291 0.000002 0.000002 0.000002 6.436825 6.866919 -86.288423 7.314802 6.867577 -93.621519 -0.000002 0.000000 0.000001 6.438729 6.866994 -86.304617 7.312872 6.867722 -93.605297 -0.000000 0.000001 0.000002 10.514969 7.128951 -86.291032 7.312038 2.781443 -93.595284 -0.000000 0.000002 -0.000002 0.000002 0.000001 -0.000001 -1.122338 -11.917100 10.268323 -58.331960 66.132726 74.039845 -0.000205 83.601044 0.000162 -16.154560 14.982361 -32.734744 35.509593 -4.573220 10.809930 66.380819 -29.907995 29.548717 0.000002 0.000002 0.000002 5.945880 -6.875927 81.685347 8.620164 -6.744995 103.956565 -0.000001 -0.000001 0.000002 5.945876 -6.875922 81.685340 8.620173 -6.745017 103.956552 0.000003 -0.000000 -0.000003 5.945853 -6.875863 81.685333 8.620179 -6.745038 103.956565 0.000000 -0.000002 -0.000002 5.945879 -6.875920 81.685340 8.620184 -6.745027 103.956579 -0.000004 0.000003 -0.000001 0.000001 -0.000001 0.000000 -0.000000 0.000001 0.000000 -0.000001 0.000001 -0.000000 -0.000000 0.000001 -0.000000 -0.000000 0.000001 -0.000000 -0.000000 0.000001 0.000000 -0.000001 0.000001 -0.000000 -0.000000 0.000001 -0.000000 -0.000000 0.000001 -0.000000 -0.000000 0.000001 0.000000 -0.000001 0.000001 -0.000000 0.000000 -0.000001 0.000000 0.000000 -0.000001 0.000000 0.000000 -0.000001 0.000000 
